<svg xmlns="http://www.w3.org/2000/svg" width="299.23" height="48.09" viewBox="0 0 299.23 48.09"><defs><style>.a{fill:#70cae0;}.b{fill:#004370;}</style></defs><g transform="translate(583.888 -275.486)"><path class="a" d="M-395.656,284.848c-.917-.057-1.548-.239-2.819-.442a21.035,21.035,0,0,0-2.588-.149l-.094.086a5.642,5.642,0,0,1,2.373,2.228,5.994,5.994,0,0,1,.9,3.119,5.9,5.9,0,0,1-2.395,4.987,10.443,10.443,0,0,1-6.431,1.8c-.442,0-.878-.014-1.3-.043s-.863-.042-1.306-.042a2.61,2.61,0,0,0-1.59.551,1.684,1.684,0,0,0-.735,1.4,2.016,2.016,0,0,0,.592,1.612,3.651,3.651,0,0,0,2.208.553q1.328.042,2.61.063t2.609.064a15.328,15.328,0,0,1,3.727.467,7.573,7.573,0,0,1,2.515,1.145,4.535,4.535,0,0,1,1.423,1.656,4.626,4.626,0,0,1,.451,2.038,7.762,7.762,0,0,1-.64,3.011,7.8,7.8,0,0,1-1.993,2.759,10.771,10.771,0,0,1-3.489,2.038,14.545,14.545,0,0,1-5.125.806,13.814,13.814,0,0,1-7.261-1.634,5.029,5.029,0,0,1-2.657-4.477,4.6,4.6,0,0,1,.45-2.038,6.186,6.186,0,0,1,1.162-1.655,5.6,5.6,0,0,1,1.615-1.145,8.759,8.759,0,0,1,1.851-.637v-.085a4.226,4.226,0,0,1-2.231-1.273,3.162,3.162,0,0,1-.76-2.123,2.781,2.781,0,0,1,.31-1.314,4.151,4.151,0,0,1,.782-1.062,4,4,0,0,1,1.092-.763,4.134,4.134,0,0,1,1.186-.382v-.086a7.9,7.9,0,0,1-3.416-2.4,6.036,6.036,0,0,1-1.235-3.884,6.316,6.316,0,0,1,.711-3.077,6.138,6.138,0,0,1,1.97-2.143,9.306,9.306,0,0,1,2.9-1.273,13.887,13.887,0,0,1,3.487-.425q.9,0,1.733.043t2.112.128q1.09.084,1.945.127t1.376.042c1.773,0,3.134.013,3.983-.061m-5.027,21.239q-1.66-1.017-5.5-1.019a11.85,11.85,0,0,0-5.5,1.04,3.876,3.876,0,0,0-1.946,3.756,5.166,5.166,0,0,0,.545,2.462,4.646,4.646,0,0,0,1.472,1.655,6.433,6.433,0,0,0,2.205.934,12.31,12.31,0,0,0,2.754.3,11.732,11.732,0,0,0,2.8-.338,8.155,8.155,0,0,0,2.442-1.02,5.587,5.587,0,0,0,1.733-1.719,4.522,4.522,0,0,0,.665-2.482,3.839,3.839,0,0,0-1.662-3.565m-2.325-18.886a5.115,5.115,0,0,0-3.749-1.4,5.139,5.139,0,0,0-3.986,1.551,5.875,5.875,0,0,0-1.424,4.137,6.347,6.347,0,0,0,1.3,4.223,5.012,5.012,0,0,0,4.057,1.549,5.187,5.187,0,0,0,2.35-.488,4.634,4.634,0,0,0,1.613-1.316,5.58,5.58,0,0,0,.95-1.909,8.278,8.278,0,0,0,.307-2.272,5.461,5.461,0,0,0-1.423-4.073"/><path class="a" d="M-391.164,302.239V282.687h3.613v4.244a8.577,8.577,0,0,1,2.168-2.665,5.832,5.832,0,0,1,3.793-1.576,4.729,4.729,0,0,1,1.355.2l-.633,3.393c-.3-.106-.571-.2-.812-.282a4.475,4.475,0,0,0-1.355-.365,5.114,5.114,0,0,0-1.512.2,3.366,3.366,0,0,0-1.242.726,4.792,4.792,0,0,0-1.22,1.657,7.314,7.314,0,0,0-.542,2.988v11.027"/><path class="a" d="M-356.161,292.464a9.283,9.283,0,0,1-3.162,7.311,11.782,11.782,0,0,1-8.085,2.786,11.3,11.3,0,0,1-7.678-2.625,8.311,8.311,0,0,1-3.025-6.543,16.733,16.733,0,0,1,.224-3.149,8.06,8.06,0,0,1,.949-2.343,9.6,9.6,0,0,1,4.133-3.8,13.4,13.4,0,0,1,6.165-1.413,10.452,10.452,0,0,1,7.678,2.766,9.438,9.438,0,0,1,2.8,7.007m-3.976-.161a10.223,10.223,0,0,0-1.445-5.614,5.739,5.739,0,0,0-5.148-2.747,6.587,6.587,0,0,0-5.646,2.625,10.588,10.588,0,0,0-1.761,6.422,9.422,9.422,0,0,0,1.717,5.857,6.336,6.336,0,0,0,5.328,2.464,6,6,0,0,0,5.329-3.111,10.968,10.968,0,0,0,1.626-5.9"/><path class="a" d="M-336.833,302.239v-3.474q-2.3,3.8-7.272,3.8-3.883,0-5.621-1.937t-1.741-5.857v-12.08h3.6l.01,11.232q0,6.663,5.374,6.663a5.091,5.091,0,0,0,4.427-1.938A7.716,7.716,0,0,0-336.833,294l.059-11.313h3.554v19.552"/><path class="a" d="M-327.6,312.619V282.688h3.613v4.324a7.468,7.468,0,0,1,2.913-3.21,9.224,9.224,0,0,1,4.764-1.111,8.637,8.637,0,0,1,6.774,2.827,9.174,9.174,0,0,1,2.35,6.342,11.136,11.136,0,0,1-2.642,7.814,9.173,9.173,0,0,1-7.114,2.888,8.075,8.075,0,0,1-4.516-1.211,7.5,7.5,0,0,1-2.439-2.667l-.09,13.935m12.826-20.437q0-4-1.625-6.058a5.534,5.534,0,0,0-4.607-2.061,5.541,5.541,0,0,0-4.9,2.526,11.566,11.566,0,0,0-1.693,6.563,8.929,8.929,0,0,0,1.445,5.25,5.931,5.931,0,0,0,5.149,2.464,5.345,5.345,0,0,0,4.833-2.585,11.527,11.527,0,0,0,1.4-6.1"/><path class="a" d="M-284.658,291.228l-.045,1.136q-2.433,0-4.526-.054t-4.03-.108h-6.935l-.045.809a7.506,7.506,0,0,0,2.07,5.473,7.811,7.811,0,0,0,5.853,2.119,8.394,8.394,0,0,0,3.422-.736,12.779,12.779,0,0,0,3.152-2.01l-.045,2.081a16.175,16.175,0,0,1-3.727,1.721,13.089,13.089,0,0,1-4,.641,11.124,11.124,0,0,1-7.632-2.545,9.437,9.437,0,0,1-3.072-7.472,9.578,9.578,0,0,1,2.575-6.947,10.218,10.218,0,0,1,7.723-2.907,9.13,9.13,0,0,1,6.91,2.636,8.517,8.517,0,0,1,2.348,6.163m-3.568-.52a8.619,8.619,0,0,0-1.265-5.048,4.947,4.947,0,0,0-4.335-1.98,5.753,5.753,0,0,0-4.968,2.464,7.649,7.649,0,0,0-1.445,4.564Z"/><path class="b" d="M-564.783,301.331a6.435,6.435,0,0,1-1.221.553,6.631,6.631,0,0,1-1.623.317,3,3,0,0,1-3.119-2.809,11.444,11.444,0,0,1-3.149,2.161,9.338,9.338,0,0,1-3.875.747,6.576,6.576,0,0,1-4.464-1.434,4.338,4.338,0,0,1-1.654-3.372,4.665,4.665,0,0,1,2.078-4.241,13.741,13.741,0,0,1,5.351-1.554,21.731,21.731,0,0,0,4.584-.909,1.98,1.98,0,0,0,1.129-1.98,4.286,4.286,0,0,0-1.626-3.675,5.987,5.987,0,0,0-3.658-1.01,7.649,7.649,0,0,0-3.372.821,3.172,3.172,0,0,0-1.837,1.645l-.661-1.94a13.97,13.97,0,0,1,7.405-2.222,7.872,7.872,0,0,1,5.06,1.454,6.221,6.221,0,0,1,2.122,5.17v10.218a1.445,1.445,0,0,0,.293,1.05,1.224,1.224,0,0,0,.881.282,2,2,0,0,0,1.356-.664Zm-6.143-3.393V291.92q-2.982.606-5.961,1.172-3.3,1.09-3.3,3.756a3.382,3.382,0,0,0,1.175,2.827,5.112,5.112,0,0,0,3.251.928,5.164,5.164,0,0,0,2.665-.848,9.9,9.9,0,0,0,2.168-1.817"/><path class="b" d="M-521.379,284.084l-1.039,2.666a14.232,14.232,0,0,0-1.374-1.391,6.2,6.2,0,0,0-1.562-.87,7.9,7.9,0,0,0-3.07-.687,7.366,7.366,0,0,0-5.691,2.3,8.525,8.525,0,0,0-2.122,6.018A9.125,9.125,0,0,0-534,298.4a7.7,7.7,0,0,0,6.074,2.524,7.766,7.766,0,0,0,3.568-.848,28.133,28.133,0,0,0,3.034-2.274l-.027.651v1.371a8.809,8.809,0,0,1-3.428,2.088,13.068,13.068,0,0,1-3.824.385q-5.466,0-8.537-2.787a9.31,9.31,0,0,1-3.07-7.229,8.786,8.786,0,0,1,3.477-7.39,13.105,13.105,0,0,1,8.22-2.465,18.783,18.783,0,0,1,3.68.323,12.522,12.522,0,0,1,3.456,1.333"/><path class="b" d="M-543.739,284.084l-1.039,2.666a14.232,14.232,0,0,0-1.374-1.391,6.2,6.2,0,0,0-1.561-.87,7.907,7.907,0,0,0-3.071-.687,7.365,7.365,0,0,0-5.69,2.3,8.521,8.521,0,0,0-2.123,6.018,9.12,9.12,0,0,0,2.236,6.281,7.7,7.7,0,0,0,6.073,2.524,7.763,7.763,0,0,0,3.568-.848,28.223,28.223,0,0,0,3.035-2.274l-.028.651v1.371a8.809,8.809,0,0,1-3.428,2.088,13.065,13.065,0,0,1-3.823.385q-5.466,0-8.537-2.787a9.308,9.308,0,0,1-3.071-7.229,8.785,8.785,0,0,1,3.478-7.39,13.1,13.1,0,0,1,8.22-2.465,18.8,18.8,0,0,1,3.68.323,12.505,12.505,0,0,1,3.455,1.333"/><path class="b" d="M-498.391,291.228l-.045,1.136q-2.433,0-4.526-.054t-4.03-.108h-6.935l-.045.809a7.5,7.5,0,0,0,2.07,5.473,7.811,7.811,0,0,0,5.853,2.119,8.394,8.394,0,0,0,3.422-.736,12.779,12.779,0,0,0,3.152-2.01l-.045,2.081a16.175,16.175,0,0,1-3.727,1.721,13.089,13.089,0,0,1-4,.641,11.125,11.125,0,0,1-7.632-2.545,9.437,9.437,0,0,1-3.072-7.472,9.578,9.578,0,0,1,2.575-6.947,10.218,10.218,0,0,1,7.723-2.907,9.13,9.13,0,0,1,6.91,2.636,8.517,8.517,0,0,1,2.348,6.163m-3.568-.52a8.619,8.619,0,0,0-1.265-5.048,4.947,4.947,0,0,0-4.335-1.98,5.753,5.753,0,0,0-4.968,2.464,7.649,7.649,0,0,0-1.445,4.564Z"/><path class="b" d="M-493.423,302.2V282.417h3.613v3.929a8.672,8.672,0,0,1,2.8-2.747,8.666,8.666,0,0,1,4.561-1.17q3.884,0,5.646,2.1a8.605,8.605,0,0,1,1.536,5.572v12.1h-3.613V290.91a8.032,8.032,0,0,0-1.175-4.806,4.475,4.475,0,0,0-3.839-1.575q-3.207,0-4.561,1.9t-1.355,6.261V302.2"/><path class="b" d="M-422.7,292.2a9.283,9.283,0,0,1-3.162,7.311,11.778,11.778,0,0,1-8.084,2.786,11.3,11.3,0,0,1-7.678-2.625,8.311,8.311,0,0,1-3.026-6.543,16.446,16.446,0,0,1,.227-3.15,7.94,7.94,0,0,1,.948-2.342,9.583,9.583,0,0,1,4.132-3.8,13.4,13.4,0,0,1,6.165-1.413A10.454,10.454,0,0,1-425.5,285.2a9.442,9.442,0,0,1,2.8,7.007m-3.976-.161a10.222,10.222,0,0,0-1.444-5.614,5.739,5.739,0,0,0-5.149-2.747,6.589,6.589,0,0,0-5.646,2.625,10.585,10.585,0,0,0-1.76,6.422,9.416,9.416,0,0,0,1.717,5.857,6.334,6.334,0,0,0,5.328,2.464,6,6,0,0,0,5.329-3.111,10.967,10.967,0,0,0,1.625-5.9"/><path class="b" d="M-450.048,275.486V302.16h-3.613v-4.324a7.468,7.468,0,0,1-2.913,3.21,9.224,9.224,0,0,1-4.764,1.111,8.637,8.637,0,0,1-6.774-2.827,9.176,9.176,0,0,1-2.35-6.342,11.136,11.136,0,0,1,2.642-7.814,9.17,9.17,0,0,1,7.114-2.888,8.062,8.062,0,0,1,4.515,1.212,7.485,7.485,0,0,1,2.44,2.666l.09-10.678m-12.826,17.18q0,4,1.625,6.058a5.534,5.534,0,0,0,4.607,2.061,5.539,5.539,0,0,0,4.9-2.526,11.557,11.557,0,0,0,1.694-6.562,8.93,8.93,0,0,0-1.445-5.251,5.931,5.931,0,0,0-5.149-2.464,5.345,5.345,0,0,0-4.833,2.585,11.524,11.524,0,0,0-1.4,6.1"/><path class="b" d="M-535.343,318.874l.638-5.207h.885l-.651,5.312c-.065.456.065.586.469.586l-.091.743c-.937,0-1.38-.391-1.25-1.434m1.315-7.812a.645.645,0,0,1,.651.651.644.644,0,0,1-.651.651.645.645,0,0,1-.651-.651.645.645,0,0,1,.651-.651"/><path class="b" d="M-532.321,316.921c.235-1.874.99-3.385,3.086-3.385a3.105,3.105,0,0,1,1.954.677l.259-.546h.508l-.858,7.03c-.209,1.615-.691,2.878-3.035,2.878a4.754,4.754,0,0,1-2.474-.521l.117-.9a4.848,4.848,0,0,0,2.461.65c1.745,0,1.888-1.2,2.019-2.11l.1-.924a3.977,3.977,0,0,1-1.888.534c-2.1,0-2.474-1.511-2.253-3.386m4.232,2.162.534-4.323a3.175,3.175,0,0,0-1.772-.417c-1.562,0-1.927,1.29-2.083,2.578s-.117,2.579,1.446,2.579a3.733,3.733,0,0,0,1.875-.417"/><path class="b" d="M-521.067,315.45c.1-.847-.352-1.107-1.158-1.107a3.375,3.375,0,0,0-1.81.417l-.665,5.417h-.912l.795-6.511h.508l.13.546a3.587,3.587,0,0,1,2.045-.676c1.549,0,2.122.7,1.978,1.953l-.572,4.688h-.912Z"/><path class="b" d="M-518.733,318.874l.638-5.207h.885l-.651,5.312c-.065.456.065.586.469.586l-.091.743c-.937,0-1.38-.391-1.25-1.434m1.315-7.812a.645.645,0,0,1,.651.651.644.644,0,0,1-.651.651.645.645,0,0,1-.651-.651.645.645,0,0,1,.651-.651"/><path class="b" d="M-512.6,320.255a3.109,3.109,0,0,1-.6.052c-1.081,0-2.019-.495-1.862-1.771l.508-4.153h-1.3l.052-.4,1.354-.377.209-1.759.951-.259-.261,2.083h2.017l-.09.716h-2.018l-.495,4.049c-.1.795.286,1.121,1.106,1.121.169,0,.352-.015.521-.026Z"/><path class="b" d="M-509.965,317.339c-.078,1.132.091,2.161,1.562,2.161a5.234,5.234,0,0,0,2.188-.365l-.091.782a5.639,5.639,0,0,1-2.2.39c-2.2,0-2.539-1.51-2.318-3.385s.951-3.385,3.152-3.385c1.836,0,2.3,1,2.187,1.927s-.82,1.875-2.656,1.875Zm1.914-.743c1.289,0,1.627-.495,1.706-1.132s-.131-1.121-1.419-1.121c-1.511,0-1.927,1.082-2.11,2.253Z"/><path class="b" d="M-502.409,323.224l.091-.782a5.277,5.277,0,0,0,1.914.365c1.745,0,1.888-1.2,2.018-2.109l.1-.924a3.48,3.48,0,0,1-1.823.533c-1.55,0-2.123-.7-1.966-1.953l.572-4.687h.912l-.586,4.726c-.105.847.364,1.107,1.172,1.107a3.412,3.412,0,0,0,1.81-.417l.664-5.416h.911l-.86,7.031c-.207,1.614-.689,2.878-3.033,2.878a4.832,4.832,0,0,1-1.9-.352"/><path class="b" d="M-493.135,320.308c-2.225,0-2.564-1.394-2.316-3.386s.924-3.386,3.15-3.386,2.566,1.394,2.318,3.386-.912,3.386-3.152,3.386m.743-5.964c-1.719,0-1.966,1.107-2.149,2.578s-.208,2.579,1.512,2.579c1.692,0,1.952-1.107,2.134-2.579s.2-2.578-1.5-2.578"/><path class="b" d="M-487.753,318.393c-.1.847.365,1.107,1.173,1.107a3.42,3.42,0,0,0,1.809-.416l.664-5.418h.912l-.795,6.511h-.507l-.131-.547a3.651,3.651,0,0,1-2.058.677c-1.549,0-2.121-.7-1.966-1.953l.573-4.688h.912Z"/><path class="b" d="M-478.009,314.447a2.431,2.431,0,0,0-.769-.1,3.8,3.8,0,0,0-1.94.417l-.663,5.416h-.912l.8-6.51h.507l.131.547a3.889,3.889,0,0,1,2.174-.677,4.739,4.739,0,0,1,.781.065Z"/><path class="b" d="M-474.4,319.773l-.443,3.659h-.912l1.2-9.766h.508l.131.534a4.112,4.112,0,0,1,2.109-.664c2.1,0,2.486,1.51,2.252,3.385s-.989,3.386-3.086,3.386a3.1,3.1,0,0,1-1.757-.534m3.932-2.852c.156-1.289.13-2.578-1.432-2.578a3.7,3.7,0,0,0-1.875.416l-.534,4.324a3.151,3.151,0,0,0,1.771.416c1.562,0,1.914-1.289,2.07-2.578"/><path class="b" d="M-465.8,320.308c-2.225,0-2.564-1.394-2.316-3.386s.923-3.386,3.15-3.386,2.566,1.394,2.318,3.386-.912,3.386-3.152,3.386m.743-5.964c-1.719,0-1.966,1.107-2.149,2.578s-.208,2.579,1.512,2.579c1.692,0,1.952-1.107,2.134-2.579s.2-2.578-1.5-2.578"/><path class="b" d="M-458.1,320.255a3.105,3.105,0,0,1-.6.052c-1.082,0-2.02-.495-1.863-1.771l.508-4.153h-1.3l.052-.4,1.354-.377.209-1.759.951-.259-.261,2.083h2.018l-.091.716h-2.018l-.495,4.049c-.1.795.286,1.121,1.106,1.121.169,0,.352-.015.521-.026Z"/><path class="b" d="M-455.469,317.339c-.078,1.132.091,2.161,1.562,2.161a5.234,5.234,0,0,0,2.188-.365l-.091.782a5.639,5.639,0,0,1-2.2.39c-2.2,0-2.539-1.51-2.318-3.385s.951-3.385,3.152-3.385c1.836,0,2.3,1,2.187,1.927s-.82,1.875-2.656,1.875Zm1.914-.743c1.289,0,1.627-.495,1.706-1.132s-.131-1.121-1.419-1.121c-1.511,0-1.927,1.082-2.11,2.253Z"/><path class="b" d="M-445.4,315.45c.1-.847-.352-1.107-1.158-1.107a3.375,3.375,0,0,0-1.81.417l-.665,5.417h-.912l.8-6.511h.508l.13.546a3.587,3.587,0,0,1,2.045-.676c1.549,0,2.122.7,1.978,1.953l-.572,4.688h-.912Z"/><path class="b" d="M-440.059,320.255a3.109,3.109,0,0,1-.6.052c-1.081,0-2.019-.495-1.862-1.771l.508-4.153h-1.3l.052-.4,1.354-.377.209-1.759.951-.259-.261,2.083h2.017l-.09.716H-441.1l-.495,4.049c-.1.795.286,1.121,1.106,1.121.169,0,.352-.015.521-.026Z"/><path class="b" d="M-438.181,318.874l.638-5.207h.885l-.651,5.312c-.065.456.065.586.469.586l-.091.743c-.937,0-1.38-.391-1.25-1.434m1.315-7.812a.645.645,0,0,1,.651.651.644.644,0,0,1-.651.651.645.645,0,0,1-.651-.651.645.645,0,0,1,.651-.651"/><path class="b" d="M-430.146,320.176h-.507l-.131-.533a4.2,4.2,0,0,1-2.122.664c-2.1,0-2.474-1.511-2.253-3.386s.99-3.385,3.086-3.385a3.105,3.105,0,0,1,1.954.677l.259-.546h.508Zm-.781-1.093.534-4.323a3.175,3.175,0,0,0-1.772-.417c-1.562,0-1.927,1.29-2.083,2.578s-.117,2.579,1.446,2.579a3.733,3.733,0,0,0,1.875-.417"/><path class="b" d="M-428.085,318.875l1.041-8.464h.886l-1.054,8.568c-.065.456.065.587.468.587l-.091.741c-.937,0-1.38-.391-1.25-1.432"/></g></svg>